<?xml version="1.0" encoding="utf-8"?>
<!-- Generator: Adobe Illustrator 16.0.4, SVG Export Plug-In . SVG Version: 6.00 Build 0)  -->
<!DOCTYPE svg PUBLIC "-//W3C//DTD SVG 1.1//EN" "http://www.w3.org/Graphics/SVG/1.1/DTD/svg11.dtd">
<svg version="1.1" id="Layer_1" xmlns="http://www.w3.org/2000/svg" xmlns:xlink="http://www.w3.org/1999/xlink" x="0px" y="0px"
	 width="40.804px" height="39.837px" viewBox="-56.651 30.331 40.804 39.837" enable-background="new -56.651 30.331 40.804 39.837"
	 xml:space="preserve">
<g>
	<path fill="#FFFFFF" d="M-26.738,67.994c-3.547,1.603-6.849,2.174-11.073,2.174c-10.093,0-18.84-6.812-18.84-17.977
		c0-11.674,8.932-21.86,22.634-21.86c10.77,0,18.17,6.982,18.17,16.542c0,8.469-5.079,13.619-11.258,13.619
		c-2.69,0-4.83-1.429-4.952-4.695h-0.186c-2.017,3.149-4.771,4.695-8.196,4.695c-3.793,0-6.795-2.749-6.795-7.328
		c0-7.035,5.752-13.451,14.438-13.451c2.695,0,5.387,0.576,6.978,1.32l-1.961,10.473c-0.732,3.836-0.187,5.609,1.653,5.609
		c2.876,0.118,6.239-3.377,6.239-9.957c0-7.9-5.2-13.679-14.683-13.679c-9.667,0-17.929,7.038-17.929,18.315
		c0,9.559,6.61,15.167,15.663,15.167c3.304,0,6.607-0.624,9.056-1.892L-26.738,67.994z M-31.203,43.896
		c-0.612-0.172-1.407-0.343-2.445-0.343c-4.65,0-8.32,4.235-8.32,9.1c0,2.346,1.162,3.946,3.424,3.946
		c2.877,0,5.627-3.435,6.242-6.808L-31.203,43.896z"/>
</g>
</svg>
