<?xml version="1.0" encoding="utf-8"?>
<!-- Generator: Adobe Illustrator 16.0.4, SVG Export Plug-In . SVG Version: 6.00 Build 0)  -->
<!DOCTYPE svg PUBLIC "-//W3C//DTD SVG 1.1//EN" "http://www.w3.org/Graphics/SVG/1.1/DTD/svg11.dtd">
<svg version="1.1" id="Layer_1" xmlns="http://www.w3.org/2000/svg" xmlns:xlink="http://www.w3.org/1999/xlink" x="0px" y="0px"
	 width="30.571px" height="30.072px" viewBox="-35.869 -69.12 30.571 30.072" enable-background="new -35.869 -69.12 30.571 30.072"
	 xml:space="preserve">
<path fill="#FFFFFF" d="M-29.616-69.083c1.937-0.334,3.206,1.664,4.173,3.045c0.939,1.34,2.096,2.913,1.629,4.658
	c-0.26,0.979-1.225,1.511-1.955,2.089c-0.721,0.568-1.818,1.094-2.084,1.969c-0.436,1.421,0.516,2.911,1.105,3.761
	c1.338,1.919,2.954,3.649,5.02,5.193c1,0.749,2.386,1.75,3.777,1.492c2.078-0.385,2.626-2.732,4.889-3.045
	c2.152-0.299,3.609,1.132,4.825,2.089c1.173,0.929,3.062,2.115,2.933,3.704c-0.074,0.912-0.873,1.479-1.566,2.03
	c-0.705,0.562-1.322,1.194-2.018,1.61c-1.686,1.007-3.754,1.501-6.129,1.434c-2.329-0.066-4.184-0.791-5.867-1.612
	c-3.289-1.606-5.891-3.868-8.34-6.388c-2.411-2.479-4.636-5.411-5.865-8.654c-1.536-4.05-0.725-8.209,1.762-10.804
	c0.42-0.442,1.084-0.901,1.692-1.375C-31.029-68.359-30.469-68.936-29.616-69.083z"/>
</svg>
